<svg width="28" height="28" viewBox="0 0 28 28" fill="none" xmlns="http://www.w3.org/2000/svg">
<path fill-rule="evenodd" clip-rule="evenodd" d="M9.50004 6.5C9.50004 4.29086 11.2909 2.5 13.5 2.5H21C23.4853 2.5 25.5 4.51472 25.5 7V21C25.5 23.4853 23.4853 25.5 21 25.5H13.5C11.2909 25.5 9.50004 23.7091 9.50004 21.5V19.8333C9.50004 19.281 9.94776 18.8333 10.5 18.8333C11.0523 18.8333 11.5 19.281 11.5 19.8333V21.5C11.5 22.6046 12.3955 23.5 13.5 23.5H21C22.3808 23.5 23.5 22.3807 23.5 21V7C23.5 5.61929 22.3808 4.5 21 4.5H13.5C12.3955 4.5 11.5 5.39543 11.5 6.5V8.16667C11.5 8.71895 11.0523 9.16667 10.5 9.16667C9.94776 9.16667 9.50004 8.71895 9.50004 8.16667V6.5ZM14.4596 9.79289C14.8501 9.40237 15.4833 9.40237 15.8738 9.79289L19.3738 13.2929C19.7643 13.6834 19.7643 14.3166 19.3738 14.7071L15.8738 18.2071C15.4833 18.5976 14.8501 18.5976 14.4596 18.2071C14.0691 17.8166 14.0691 17.1834 14.4596 16.7929L16.2525 15L5.83337 15C5.28109 15 4.83337 14.5523 4.83337 14C4.83337 13.4477 5.28109 13 5.83337 13L16.2525 13L14.4596 11.2071C14.0691 10.8166 14.0691 10.1834 14.4596 9.79289Z" fill="#0F1729"/>
</svg>
